<svg width="168" height="31" viewBox="0 0 168 31" fill="none" xmlns="http://www.w3.org/2000/svg">
<path d="M15.088 2.10068L10.3822 9.303L5.67639 2.10068H0V23.1075H4.99993V9.24298L10.1469 17.2556H10.6175L15.7645 9.24298V23.1075H20.7644V2.10068H15.088Z" fill="#FF6813"/>
<path d="M35.8765 6.60213V8.46273C34.8471 7.11229 33.3178 6.212 31.259 6.212C27.2296 6.212 23.9944 9.72314 23.9944 14.8548C23.9944 19.9564 27.1708 23.4976 31.2884 23.4976C33.3472 23.4976 34.8177 22.6273 35.8471 21.3369V23.1075H40.8471L40.8765 6.60213H35.8765ZM32.4648 18.636C30.5531 18.636 29.0531 17.1655 29.0531 14.8548C29.0531 12.5741 30.5237 11.0736 32.4648 11.0736C34.406 11.0736 35.8765 12.5741 35.8765 14.8548C35.8765 17.1655 34.406 18.636 32.4648 18.636Z" fill="#FF6813"/>
<path d="M55.4075 6.60213V8.43272C54.3781 7.11229 52.8487 6.212 50.8193 6.212C46.7606 6.212 43.5253 9.72314 43.5253 14.7047C43.5253 19.6563 46.7018 23.1975 50.8193 23.1975C52.8781 23.1975 54.3487 22.3272 55.4075 21.0368V23.0474C55.4075 25.4182 54.2899 26.4685 52.1134 26.4685C50.7605 26.4685 49.4664 26.1084 49.0841 24.4579H43.9371C44.4665 29.0194 48.3194 31 52.2605 31C57.2016 31 60.4074 27.759 60.4074 22.8674V6.60213H55.4075ZM51.9958 18.3359C50.0841 18.3359 48.5841 16.8654 48.5841 14.7047C48.5841 12.5741 50.0547 11.0736 51.9958 11.0736C53.937 11.0736 55.4075 12.5741 55.4075 14.7047C55.4075 16.8654 53.937 18.3359 51.9958 18.3359Z" fill="#FF6813"/>
<path d="M71.5856 6.212C66.5563 6.212 63.0563 9.96321 63.0563 14.8548C63.0563 19.7464 66.5268 23.4976 71.7032 23.4976C75.2032 23.4976 78.5855 21.787 79.7031 17.7057H74.5561C74.1738 18.9061 73.0562 19.5663 71.7032 19.5663C69.968 19.5663 68.3798 18.486 68.1445 15.9351H79.9384C80.4384 10.5034 76.9385 6.212 71.5856 6.212ZM71.5562 10.1433C73.3503 10.1433 74.4091 11.2536 74.7326 12.8441H68.2915C68.7033 11.2536 69.7621 10.1433 71.5562 10.1433Z" fill="#FF6813"/>
<path d="M82.3644 23.1075H87.3643V0H82.3644V23.1075Z" fill="#FF6813"/>
<path d="M101.88 6.60213V8.46273C100.85 7.11229 99.3209 6.212 97.2622 6.212C93.2328 6.212 89.9976 9.72314 89.9976 14.8548C89.9976 19.9564 93.174 23.4976 97.2916 23.4976C99.3504 23.4976 100.821 22.6273 101.85 21.3369V23.1075H106.85L106.88 6.60213H101.88ZM98.468 18.636C96.5563 18.636 95.0563 17.1655 95.0563 14.8548C95.0563 12.5741 96.5269 11.0736 98.468 11.0736C100.409 11.0736 101.88 12.5741 101.88 14.8548C101.88 17.1655 100.409 18.636 98.468 18.636Z" fill="#FF6813"/>
<path d="M119.499 6.212C117.499 6.212 115.999 6.99226 114.823 8.46273V6.60213H109.823V23.1075H114.823V14.3446C114.823 12.0639 115.823 11.0736 117.793 11.0736C119.822 11.0736 120.352 12.1239 120.352 13.9245V23.1075H125.352V12.7841C125.352 8.76283 123.146 6.212 119.499 6.212Z" fill="#FF6813"/>
<path d="M135.588 23.4976C139.735 23.4976 143 21.607 143 17.7957C143 14.3746 140.382 13.3843 135.559 12.304C133.618 11.8838 133.147 11.8238 133.147 11.2536C133.147 10.5334 133.882 10.0833 135.353 10.0833C136.941 10.0833 137.588 10.6234 137.794 11.4037H142.853C142.353 8.25266 140.118 6.24201 135.559 6.24201C130.883 6.24201 128.088 8.34269 128.088 11.9138C128.088 14.8248 129.971 16.0852 134.588 17.1055C137.353 17.7057 137.853 17.8558 137.853 18.516C137.853 19.2062 137.324 19.6563 135.647 19.6563C133.324 19.6563 132.677 18.7861 132.471 17.8858H127.412C128 21.3669 131.206 23.4976 135.588 23.4976Z" fill="#FF6813"/>
<mask id="mask0_602_4" style="mask-type:alpha" maskUnits="userSpaceOnUse" x="147" y="3" width="21" height="21">
<path d="M147.104 3.38058H168V23.4403H147.104V3.38058Z" fill="#FF6813"/>
</mask>
<g mask="url(#mask0_602_4)">
<path fill-rule="evenodd" clip-rule="evenodd" d="M154.772 0.0372925L168 13.4104L154.772 26.7836L154.772 23.344L164.598 13.4104L154.772 3.4769L154.772 0.0372925Z" fill="#FF6813"/>
</g>
</svg>
