<svg width="1129" height="202" viewBox="0 0 1129 202" fill="none" xmlns="http://www.w3.org/2000/svg">
<path d="M100.341 13.6883L69.0453 60.6196L37.75 13.6883H0V150.571H33.2513V60.2285L67.4805 112.439H70.6101L104.839 60.2285V150.571H138.091V13.6883H100.341Z" fill="white"/>
<path d="M238.592 43.0203V55.1442C231.746 46.3446 221.575 40.4782 207.883 40.4782C181.086 40.4782 159.571 63.3572 159.571 96.7957C159.571 130.039 180.695 153.113 208.079 153.113C221.77 153.113 231.55 147.442 238.396 139.034V150.571H271.647L271.843 43.0203H238.592ZM215.902 121.435C203.189 121.435 193.213 111.853 193.213 96.7957C193.213 81.9342 202.993 72.1568 215.902 72.1568C228.812 72.1568 238.592 81.9342 238.592 96.7957C238.592 111.853 228.812 121.435 215.902 121.435Z" fill="white"/>
<path d="M368.479 43.0203V54.9487C361.634 46.3446 351.463 40.4782 337.966 40.4782C310.974 40.4782 289.459 63.3572 289.459 95.818C289.459 128.083 310.583 151.158 337.966 151.158C351.658 151.158 361.438 145.487 368.479 137.078V150.18C368.479 165.628 361.047 172.472 346.573 172.472C337.575 172.472 328.969 170.126 326.426 159.371H292.197C295.718 189.094 321.341 202 347.551 202C380.411 202 401.731 180.881 401.731 149.007V43.0203H368.479ZM345.79 119.479C333.077 119.479 323.101 109.897 323.101 95.818C323.101 81.9342 332.881 72.1568 345.79 72.1568C358.7 72.1568 368.479 81.9342 368.479 95.818C368.479 109.897 358.7 119.479 345.79 119.479Z" fill="white"/>
<path d="M476.069 40.4782C442.622 40.4782 419.346 64.9216 419.346 96.7957C419.346 128.67 442.427 153.113 476.852 153.113C500.128 153.113 522.621 141.967 530.054 115.373H495.824C493.282 123.195 485.849 127.497 476.852 127.497C465.311 127.497 454.749 120.457 453.185 103.835H531.618C534.944 68.4414 511.668 40.4782 476.069 40.4782ZM475.874 66.0949C487.805 66.0949 494.846 73.3301 496.998 83.6941H454.163C456.901 73.3301 463.942 66.0949 475.874 66.0949Z" fill="white"/>
<path d="M547.752 150.571H581.003V0H547.752V150.571Z" fill="white"/>
<path d="M677.536 43.0203V55.1442C670.69 46.3446 660.519 40.4782 646.827 40.4782C620.031 40.4782 598.515 63.3572 598.515 96.7957C598.515 130.039 619.64 153.113 647.023 153.113C660.715 153.113 670.494 147.442 677.34 139.034V150.571H710.592L710.787 43.0203H677.536ZM654.847 121.435C642.133 121.435 632.158 111.853 632.158 96.7957C632.158 81.9342 641.938 72.1568 654.847 72.1568C667.756 72.1568 677.536 81.9342 677.536 96.7957C677.536 111.853 667.756 121.435 654.847 121.435Z" fill="white"/>
<path d="M794.71 40.4782C781.409 40.4782 771.434 45.5624 763.61 55.1442V43.0203H730.359V150.571H763.61V93.4714C763.61 78.6099 770.26 72.1568 783.365 72.1568C796.861 72.1568 800.382 79.001 800.382 90.7338V150.571H833.633V83.303C833.633 57.0997 818.964 40.4782 794.71 40.4782Z" fill="white"/>
<path d="M901.71 153.113C929.289 153.113 951 140.794 951 115.959C951 93.667 933.592 87.2139 901.514 80.1742C888.605 77.4366 885.476 77.0455 885.476 73.3301C885.476 68.637 890.365 65.7038 900.145 65.7038C910.707 65.7038 915.01 69.2236 916.38 74.3078H950.022C946.697 53.7754 931.832 40.6738 901.514 40.6738C870.415 40.6738 851.833 54.3621 851.833 77.6321C851.833 96.6002 864.351 104.813 895.06 111.462C913.446 115.373 916.771 116.35 916.771 120.652C916.771 125.15 913.25 128.083 902.101 128.083C886.649 128.083 882.346 122.412 880.977 116.546H847.334C851.246 139.229 872.566 153.113 901.71 153.113Z" fill="white"/>
<mask id="mask0_601_2" style="mask-type:alpha" maskUnits="userSpaceOnUse" x="989" y="18" width="140" height="132">
<rect x="989" y="18.375" width="140" height="131.25" fill="#D9D9D9"/>
</mask>
<g mask="url(#mask0_601_2)">
<path d="M1041.09 17.7646L1106.21 83.6948L1041.09 149.625" stroke="white" stroke-width="15" stroke-linecap="square"/>
</g>
</svg>
