<svg width="26" height="26" viewBox="0 0 26 26" fill="none" xmlns="http://www.w3.org/2000/svg">
<g clip-path="url(#clip0_6_99)">
<path d="M19.2386 14.94C19.188 14.9157 17.2925 13.9823 16.9557 13.861C16.8182 13.8117 16.6709 13.7635 16.5142 13.7635C16.2583 13.7635 16.0433 13.891 15.8758 14.1416C15.6864 14.423 15.1133 15.093 14.9361 15.2932C14.913 15.3196 14.8814 15.3512 14.8625 15.3512C14.8456 15.3512 14.5522 15.2304 14.4634 15.1918C12.4301 14.3085 10.8867 12.1846 10.6751 11.8264C10.6449 11.7749 10.6436 11.7515 10.6434 11.7515C10.6508 11.7242 10.7192 11.6557 10.7545 11.6203C10.8577 11.5182 10.9695 11.3835 11.0778 11.2533C11.129 11.1916 11.1803 11.1298 11.2307 11.0715C11.3877 10.8889 11.4576 10.747 11.5387 10.5828L11.5811 10.4974C11.779 10.1043 11.61 9.77255 11.5554 9.66542C11.5106 9.57577 10.7102 7.64418 10.6251 7.44124C10.4205 6.95155 10.1501 6.72354 9.77439 6.72354C9.73953 6.72354 9.77439 6.72354 9.62818 6.7297C9.45015 6.73722 8.48064 6.86485 8.05197 7.13507C7.5974 7.42166 6.82837 8.3352 6.82837 9.9418C6.82837 11.3878 7.74597 12.753 8.13993 13.2722C8.14973 13.2853 8.16771 13.3119 8.19379 13.3501C9.70255 15.5535 11.5834 17.1864 13.4901 17.9481C15.3257 18.6813 16.195 18.7661 16.6891 18.7661H16.6892C16.8969 18.7661 17.0631 18.7498 17.2097 18.7354L17.3027 18.7265C17.9369 18.6703 19.3304 17.9482 19.6474 17.0673C19.8971 16.3735 19.9629 15.6155 19.7968 15.3403C19.683 15.1533 19.4869 15.0592 19.2386 14.94Z" fill="black"/>
<path d="M13.2308 0C6.18916 0 0.460383 5.68573 0.460383 12.6744C0.460383 14.9348 1.0653 17.1474 2.21125 19.0839L0.0178765 25.5539C-0.0229806 25.6746 0.00740896 25.808 0.0966362 25.8988C0.161045 25.9645 0.248415 26 0.337643 26C0.371831 26 0.406273 25.9949 0.43987 25.9841L7.18636 23.8403C9.03253 24.8267 11.1191 25.3474 13.2309 25.3474C20.2718 25.3475 26 19.6623 26 12.6744C26 5.68573 20.2718 0 13.2308 0ZM13.2308 22.7073C11.2437 22.7073 9.31912 22.1335 7.66475 21.0479C7.60912 21.0114 7.54454 20.9926 7.47954 20.9926C7.44518 20.9926 7.41074 20.9979 7.37723 21.0085L3.99765 22.0828L5.08864 18.8641C5.12392 18.7599 5.10628 18.645 5.04128 18.5562C3.78146 16.8348 3.11551 14.801 3.11551 12.6744C3.11551 7.14156 7.65318 2.64018 13.2307 2.64018C18.8075 2.64018 23.3447 7.14156 23.3447 12.6744C23.3448 18.2066 18.8077 22.7073 13.2308 22.7073Z" fill="black"/>
</g>
<defs>
<clipPath id="clip0_6_99">
<rect width="26" height="26" fill="white"/>
</clipPath>
</defs>
</svg>
